<?xml version="1.0" standalone="no"?>
<!DOCTYPE svg PUBLIC "-//W3C//DTD SVG 20010904//EN"
 "http://www.w3.org/TR/2001/REC-SVG-20010904/DTD/svg10.dtd">
<svg version="1.0" xmlns="http://www.w3.org/2000/svg"
 width="230.000000pt" height="230.000000pt" viewBox="0 0 230.000000 230.000000"
 preserveAspectRatio="xMidYMid meet">

<g transform="translate(0.000000,230.000000) scale(0.100000,-0.100000)"
fill="#000000" stroke="none">
<path d="M2122 2050 c-21 -13 -154 -47 -355 -91 -341 -74 -420 -100 -437 -144
-24 -62 -29 -192 -35 -830 -3 -374 -8 -711 -11 -749 -7 -76 -35 -132 -69 -139
-11 -2 -4 -5 15 -6 38 -1 90 29 620 356 213 132 258 164 272 193 14 29 21 108
38 430 52 973 51 948 20 985 -16 19 -18 19 -58 -5z m-556 -548 c-12 -22 -16
-66 -17 -175 -1 -115 -4 -147 -15 -151 -12 -4 -14 20 -14 148 0 153 0 154 27
185 32 37 40 34 19 -7z"/>
<path d="M130 1901 c-15 -29 -12 -50 4 -28 18 23 43 22 51 -4 4 -11 9 -18 12
-16 6 7 -16 50 -31 59 -17 12 -25 9 -36 -11z"/>
<path d="M1016 1728 c-17 -24 -21 -48 -8 -48 4 0 13 9 20 20 17 28 44 25 64
-7 19 -31 24 -14 7 20 -23 43 -59 49 -83 15z"/>
<path d="M387 1537 c-3 -8 -3 -18 0 -21 11 -11 48 -6 67 9 20 15 20 15 0 15
-10 0 -29 3 -40 6 -14 4 -23 0 -27 -9z"/>
<path d="M488 1523 c7 -3 16 -2 19 1 4 3 -2 6 -13 5 -11 0 -14 -3 -6 -6z"/>
<path d="M538 1513 c7 -3 16 -2 19 1 4 3 -2 6 -13 5 -11 0 -14 -3 -6 -6z"/>
<path d="M625 1490 c11 -5 27 -9 35 -9 9 0 8 4 -5 9 -11 5 -27 9 -35 9 -9 0
-8 -4 5 -9z"/>
<path d="M982 1360 c0 -14 2 -19 5 -12 2 6 2 18 0 25 -3 6 -5 1 -5 -13z"/>
<path d="M400 1321 l-25 -7 22 -8 c24 -8 43 -1 43 15 0 10 -4 10 -40 0z"/>
<path d="M982 1200 c0 -14 2 -19 5 -12 2 6 2 18 0 25 -3 6 -5 1 -5 -13z"/>
<path d="M943 1037 c-23 -12 -42 -25 -43 -29 0 -5 0 -13 0 -19 0 -5 -5 -7 -12
-3 -7 5 -9 2 -5 -9 3 -9 0 -18 -8 -21 -15 -5 -10 -36 5 -36 9 0 113 130 108
135 -2 2 -22 -7 -45 -18z"/>
<path d="M663 971 c-9 -15 -6 -17 22 -19 43 -3 53 13 17 26 -23 8 -31 7 -39
-7z"/>
<path d="M680 790 c-22 -6 -23 -8 -7 -15 11 -4 23 -3 30 4 15 15 7 19 -23 11z"/>
<path d="M197 713 c-4 -3 -7 -15 -7 -27 0 -20 0 -20 15 0 15 19 15 19 35 -5
24 -27 27 -15 4 17 -15 22 -35 28 -47 15z"/>
<path d="M698 492 c-10 -2 -18 -8 -18 -13 0 -13 27 -11 35 2 9 13 4 16 -17 11z"/>
<path d="M1027 353 c-4 -3 -7 -17 -7 -30 l0 -23 22 22 21 21 29 -33 c32 -40
37 -30 8 18 -19 30 -55 43 -73 25z"/>
</g>
</svg>
